<svg xmlns="http://www.w3.org/2000/svg" viewBox="0 0 459.77 78.85"><defs><style>.cls-1{fill:none;}.cls-2{clip-path:url(#clip-path);}.cls-3{fill:#0c8799;}.cls-4{fill:#29abab;}.cls-5{fill:#82a73f;}.cls-6{fill:#b5d151;}.cls-7{fill:#032440;}.cls-8{fill:#0f5e67;}</style><clipPath id="clip-path" transform="translate(-11.84 -3.45)"><path d="M11.8 0h347.4v82.3H11.8z" class="cls-1"/></clipPath></defs><title>caredash-logo-official-news</title><path d="M12.97 25.05a24.7 24.7 0 0 1 7.2 1.6c3.5 1.4 6.7 4.3 9.5 7.9a71.57 71.57 0 0 1 3-13.8 21.82 21.82 0 0 1 .9-2.4 18.17 18.17 0 0 0-13.7-4.1c-1 1-5.6 5-6.9 10.8" class="cls-3"/><path d="M31.27 58.25c-.6-3-1.1-5.8-1.4-8.4-.3-.2-.5-.3-.8-.5-29.1-17.9-11.1-33.1-9.2-35.1 0 0-3.9 0-9.5 2.8a24 24 0 0 0-4.4 3 2.36 2.36 0 0 0-.5.5c-8.3 8.1-7.1 21.8 3.2 33.4 7.9 8.9 19.3 16.7 27 21.3-1.3-4.1-3-10.4-4.4-17" class="cls-4"/><path d="M86.57 18.25a23.15 23.15 0 0 0-2.5-6.8 32.36 32.36 0 0 0-14.2-.7 20 20 0 0 1 1 5.7c.4 8-2 18.3-4.5 24.2-1.9 4.5-5.3 9.8-8.9 15 .6 4.2 1.2 7.8 1.6 10.1 6.9-5.9 14.5-13.3 20.2-21.1 6.4-9.1 8.8-18.5 7.3-26.4" class="cls-5"/><path d="M81.47 7.85a24 24 0 0 0-2.4-2.2l-.1-.1c-.5-.4-.9-.7-.9-.7a6.73 6.73 0 0 0-1.1-.7c-.1-.1-.2-.1-.3-.2s-.5-.3-.7-.4l-.6-.3c-.1 0-.1-.1-.2-.1a29.25 29.25 0 0 0-6.5-2.4c-20.1-4.8-29.3 14.8-31.5 21.4a70.45 70.45 0 0 0-3.1 16.3c-.4 5.3.5 12.2 1.9 18.8 2.1 10 5.8 21.5 5.8 21.6s11.2-8.1 12.2-8.9c0-1.6-6.3-27.8-1.6-42.4 3.7-11.3 10.9-15.5 17.5-16.8a30.75 30.75 0 0 1 14.2.7 20.4 20.4 0 0 0-2.6-3.6" class="cls-6"/><path d="M134.67 49.45a28.74 28.74 0 0 0 1.7-3q2.7-4.8 3.3-4.8a.57.57 0 0 1 .6.7c0 2.8-1.4 6.3-4.3 10.5-5.2 7.6-12.1 11.4-20.8 11.4a13.9 13.9 0 0 1-6.7-1.7 14.3 14.3 0 0 1-4.8-4.3 19.84 19.84 0 0 1-3.6-11.2c0-9.8 2.6-17.8 7.7-23.8s11.2-9 18.2-9a9.38 9.38 0 0 1 6.5 2.3 7.64 7.64 0 0 1 2.5 5.9 12.6 12.6 0 0 1-1.8 6.6c-1.2 2-2.6 3.1-4.3 3.1s-2.5-.5-2.5-1.4a5.92 5.92 0 0 1 1.7-3.5 6.14 6.14 0 0 0 1.7-3.9c0-4-2.1-6-6.4-6s-8.1 2.9-11.6 8.6a34.16 34.16 0 0 0-5.2 17.6 18 18 0 0 0 3.6 11.1 11.83 11.83 0 0 0 10 4.9c4.9.1 9.8-3.3 14.5-10.1zm24 14.4a7.84 7.84 0 0 1-5-1.4q-.6-.6-.6-3c0-1.6.1-3.8.2-6.5a31.72 31.72 0 0 1-4.4 8.2 6.78 6.78 0 0 1-5.6 2.7c-2.3 0-4.2-1.1-5.9-3.2s-2.5-5.5-2.5-10a19.9 19.9 0 0 1 3.9-12.1 12 12 0 0 1 10.1-5.3c1.8 0 3.8 1.2 6.1 3.6a13.5 13.5 0 0 1 2.4-2.2 5.08 5.08 0 0 1 3-1.3c.8 0 1.2 1.1 1.2 3.2a24 24 0 0 1-.5 3.3 14.1 14.1 0 0 1-1.1 3.6c-.5 1.3-.8 5.9-.8 13.8 0 1.5.2 2.3.5 2.3 1-.1 2.3-1.3 4-3.6a49 49 0 0 0 5-9c1.7-3.7 2.7-5.5 3.1-5.5a.57.57 0 0 1 .6.7c0 1.6-.8 4.1-2.5 7.5-4.4 9.4-8.1 14.2-11.2 14.2zm-10.3-27.1c-1.6 0-3.3 1.2-5 3.5a13.12 13.12 0 0 0-2.7 8.3 19.1 19.1 0 0 0 1.4 7.8c.9 2 2.2 3.1 3.7 3.1 1.9 0 4.6-4.7 8.2-14 .1-.5.1-1.2.2-2.3s.2-1.9.2-2.5a7.5 7.5 0 0 0-2.7-2.6 6.07 6.07 0 0 0-3.3-1.3zm26.3 4.5l4.7-.5a1.55 1.55 0 0 1 1.2.8 3 3 0 0 1 .5 1.6c0 .6-.2 2.5-.6 5.8a68.74 68.74 0 0 0-.6 7.8c0 1.9.2 2.8.5 2.8 1-.1 2.3-1.3 4-3.6a49 49 0 0 0 5-9c1.7-3.7 2.7-5.5 3.1-5.5a.57.57 0 0 1 .6.7c0 1.6-.8 4.1-2.5 7.5-4.5 9.5-8.2 14.2-11.3 14.2a7.84 7.84 0 0 1-5-1.4c-.4-.4-.6-2.9-.6-7.4a43.32 43.32 0 0 1 1.4-11.6c-3.3 0-5.6-1-6.9-3.1a6.53 6.53 0 0 1-1-3.6 8.3 8.3 0 0 1 .8-3.6 2.7 2.7 0 0 1 2.4-1.5 3.92 3.92 0 0 1 2.9 1.7 5.58 5.58 0 0 1 1.3 3.7 8.06 8.06 0 0 1-1.2 4.1 5.28 5.28 0 0 0 1.3.1zm24.6 22.6a8.85 8.85 0 0 1-7.5-3.6 12.74 12.74 0 0 1-2.8-8.2c0-6.2 1.3-10.8 3.9-14a12.37 12.37 0 0 1 10.1-4.7 6.7 6.7 0 0 1 4.7 1.6 5.44 5.44 0 0 1 1.9 4.3 10.38 10.38 0 0 1-4.3 8.5 16.86 16.86 0 0 1-10.5 3.6 11 11 0 0 0 2.2 5.7 5.67 5.67 0 0 0 4.4 2.4 9 9 0 0 0 4.6-1.2 11.83 11.83 0 0 0 3.7-3.4 47.4 47.4 0 0 0 6.1-10.6 21.74 21.74 0 0 1 1.1-2.2 1 1 0 0 1 .8-.7c.3 0 .5.2.5.7 0 2.8-1.7 7.1-5.2 12.7-3.6 6.1-8.2 9.1-13.7 9.1zm-4.5-14.6c3.3-.6 5.8-1.6 7.3-3.2a8.22 8.22 0 0 0 2.3-6.2c0-2.5-.8-3.8-2.5-3.8-2 0-3.6 1.4-5 4.1a24.3 24.3 0 0 0-2.1 9.1zm24-16.3l.5 5.4a1.62 1.62 0 0 1-.9 1.4 3.74 3.74 0 0 1-1.5.5c-.8 0-1.5-.6-2.1-1.9a8.25 8.25 0 0 1-.9-3.5 14.42 14.42 0 0 1 4.4-10.6 27.84 27.84 0 0 1 11.1-6.6 13.3 13.3 0 0 1 1.2-5.5 4.1 4.1 0 0 1 3.9-2.6c.7 0 1.1 1 1.1 3.1v3.6a39.44 39.44 0 0 1 4-.3c7.5 0 13.5 2.1 17.8 6.3a21 21 0 0 1 6.6 15.9 27.18 27.18 0 0 1-2.4 11.7 20.83 20.83 0 0 1-6.4 8.1c-5.4 4-11.9 5.9-19.5 5.9h-1.8c-.2 1.6-.4 2.5-.7 2.5-2.7 0-4.4-.4-5.3-1.1a3.37 3.37 0 0 1-.7-2c-5-1.4-7.5-3-7.5-4.7a1.5 1.5 0 0 1 .6-1.3 2.1 2.1 0 0 1 1.3-.5 32.1 32.1 0 0 1 5.6 2c.5-14.8 1.2-27.5 1.9-38.1a18 18 0 0 0-7.5 4.8 10.93 10.93 0 0 0-2.8 7.5zm18.5-13.7a8.66 8.66 0 0 0-1.8.1c-.2 9.9-.5 18.2-.8 24.9q-.45 13.2-.6 16.5a20.16 20.16 0 0 0 3.6.3 19.08 19.08 0 0 0 14-6 19.9 19.9 0 0 0 5.9-14.7 21.2 21.2 0 0 0-5.7-14.9 19.1 19.1 0 0 0-14.6-6.2zm52.5 44.6a7.84 7.84 0 0 1-5-1.4q-.6-.6-.6-3c0-1.6.1-3.8.2-6.5a31.72 31.72 0 0 1-4.4 8.2 6.78 6.78 0 0 1-5.6 2.7c-2.3 0-4.2-1.1-5.9-3.2s-2.5-5.5-2.5-10a19.9 19.9 0 0 1 3.9-12.1 12 12 0 0 1 10.1-5.3c1.8 0 3.8 1.2 6.1 3.6a13.5 13.5 0 0 1 2.4-2.2 5.08 5.08 0 0 1 3-1.3c.8 0 1.2 1.1 1.2 3.2a24 24 0 0 1-.5 3.3 14.1 14.1 0 0 1-1.1 3.6c-.5 1.3-.8 5.9-.8 13.8 0 1.5.2 2.3.5 2.3 1-.1 2.3-1.3 4-3.6a49 49 0 0 0 5-9c1.7-3.7 2.7-5.5 3.1-5.5a.57.57 0 0 1 .6.7c0 1.6-.8 4.1-2.5 7.5-4.4 9.4-8.1 14.2-11.2 14.2zm-10.3-27.1c-1.6 0-3.3 1.2-5 3.5a13.12 13.12 0 0 0-2.7 8.3 19.1 19.1 0 0 0 1.4 7.8c.9 2 2.2 3.1 3.7 3.1 1.9 0 4.6-4.7 8.2-14 .1-.5.1-1.2.2-2.3s.2-1.9.2-2.5a7.5 7.5 0 0 0-2.7-2.6 6.07 6.07 0 0 0-3.3-1.3zm31.5.7l.2-1.3a1.43 1.43 0 0 0-1.7-1.5 4.2 4.2 0 0 0-3.3 2.2 6.65 6.65 0 0 0-1.6 3.7 13 13 0 0 0 .2 2.3 4.67 4.67 0 0 0 .4 1.4 5.62 5.62 0 0 0 .7 1.3 6.3 6.3 0 0 0 .8 1.1l.9 1.2c.4.6.7.9.8 1.1q4.35-3.6 10.5-8.1a1.14 1.14 0 0 1 .8-.3.73.73 0 0 1 .8.9 1.6 1.6 0 0 1-.8 1.4 108.33 108.33 0 0 0-10.3 7.5 10.6 10.6 0 0 1 1.9 5.9 7.1 7.1 0 0 1-2.5 5.5 8.87 8.87 0 0 1-6.3 2.3c-2.5 0-3.8-1.2-3.8-3.6 0-1.8 1.9-4.4 5.6-8.1-.3-.3-.8-.9-1.5-1.7s-1.3-1.4-1.7-1.8a17.2 17.2 0 0 1-1.3-1.8 8.3 8.3 0 0 1-1.4-4.6 11 11 0 0 1 3.2-8.1 9.54 9.54 0 0 1 6.9-3.1 5.22 5.22 0 0 1 3.6 1.2 3.83 3.83 0 0 1 1.3 2.5c0 1.9-.5 2.9-1.4 2.9-.7.3-1 .1-1-.4zm-5.4 16.7c-2.3 2.3-3.4 4.1-3.4 5.5a1.86 1.86 0 0 0 2.1 2.1 2.5 2.5 0 0 0 2.1-1c1.3-1.7 1-3.9-.8-6.6zm17.5 4.7l.1 2.6c0 1.6-.5 2.4-1.4 2.4a12.26 12.26 0 0 1-3.9-.6c-1.2-.4-1.9-.9-1.9-1.5s.2-2.9.5-6.7.5-6.7.5-8.6v-4.9c0-14.5 2.6-23.7 7.7-27.6a6.06 6.06 0 0 1 3.6-1.4c.6 0 1.1.6 1.7 1.9a11.2 11.2 0 0 1 .8 4.8 35.76 35.76 0 0 1-2.5 13.6 42.85 42.85 0 0 1-5 9.7c-.1 1.4-.1 3.6-.1 6.6.2-.3 1.4-2.3 3.6-5.8a47.47 47.47 0 0 1 5.5-7.7c1.5-1.6 2.8-2.5 4-2.5a4.9 4.9 0 0 1 3.2 1.2 3.9 3.9 0 0 1 1.4 3c0 2.5-.3 6.1-.8 11s-.8 7.9-.8 9.2.2 1.9.5 1.9c1-.1 2.3-1.3 4-3.6a49 49 0 0 0 5-9c1.7-3.7 2.7-5.5 3.1-5.5a.57.57 0 0 1 .6.7c0 1.6-.8 4.1-2.5 7.5-4.5 9.5-8.2 14.2-11.3 14.2a7.84 7.84 0 0 1-5-1.4c-.4-.4-.6-1.4-.6-3.1s.2-4.4.5-8.1.5-6.6.5-8.4-.3-2.8-1-2.8-2.4 1.9-5.1 5.8-4.2 6.3-4.4 7.4a40 40 0 0 0-.5 5.7zm5.5-37.7q0-3.6-.9-3.6c-1 0-2 3.1-3 9.4a112 112 0 0 0-1.1 11.6c3.4-6.9 5-12.7 5-17.4z" class="cls-7"/><path d="M359.07 31.15h2.3l13.3 22.4 3.6 6.3h.2c-.1-1.5-.1-3.1-.2-4.6s-.1-3.1-.1-4.6v-19.5h2.1v31.6h-2.3l-13.4-22.2-3.6-6.3h-.1c.1 1.5.1 3 .2 4.5s.1 3 .1 4.5v19.6h-2.1v-31.7zm3.1 32.7h-4.1v-33.7h3.86l13.6 22.9 1.78 3.12c0-.3 0-.57 0-.85-.1-1.53-.1-3.13-.1-4.67v-20.5h4.1v33.6h-3.85l-13.72-22.68-1.68-2.94q0 .28 0 .55c.1 1.53.1 3.08.1 4.57v20.6zm-2.1-2h.1v-18.6c0-1.46 0-3-.1-4.43v23zm18.45-.1h.74v-.9h-1.28zm.64-29.6v18.5c0 1.5 0 3.07.1 4.53V32.15h-.1zm-15.14 5.4l1.42 2.48 3.4 5.6zm-3.95-4.32h1.4l-.67-1.12h-.73v1.1zm27.3 18.12a16 16 0 0 1 .8-5.1 11 11 0 0 1 2.3-3.8 10.76 10.76 0 0 1 3.2-2.4 8.95 8.95 0 0 1 10.2 2c1.6 1.9 2.4 4.5 2.4 7.9v.9a2.77 2.77 0 0 1-.1.9h-16.6a12.9 12.9 0 0 0 .7 4 9.16 9.16 0 0 0 1.8 3.2 9 9 0 0 0 2.7 2.1 8.27 8.27 0 0 0 3.6.7 9.34 9.34 0 0 0 3.4-.6 15.1 15.1 0 0 0 2.8-1.5l.9 1.6a21 21 0 0 1-3 1.5 10.24 10.24 0 0 1-4.2.7 11.62 11.62 0 0 1-4.2-.8 8.83 8.83 0 0 1-3.4-2.4 11 11 0 0 1-2.3-3.8 11.9 11.9 0 0 1-1-5.1zm16.8-1.4c0-3-.6-5.2-1.8-6.7a6 6 0 0 0-4.9-2.2 6.7 6.7 0 0 0-2.8.6 6.9 6.9 0 0 0-2.4 1.8 11.23 11.23 0 0 0-1.8 2.8 10.6 10.6 0 0 0-.9 3.7h14.6zm-5.9 14.5a12.68 12.68 0 0 1-4.56-.87 9.84 9.84 0 0 1-3.76-2.66 11.88 11.88 0 0 1-2.5-4.1 12.76 12.76 0 0 1-1.06-5.47 17.08 17.08 0 0 1 .85-5.42 11.86 11.86 0 0 1 2.54-4.2 11.63 11.63 0 0 1 3.46-2.58 9.94 9.94 0 0 1 11.4 2.25c1.78 2.1 2.65 4.9 2.65 8.54v.9a3.68 3.68 0 0 1-.15 1.22l-.23.68h-16.27a12.87 12.87 0 0 0 .6 2.68 8.1 8.1 0 0 0 1.6 2.85 8 8 0 0 0 2.4 1.87 7.26 7.26 0 0 0 3.14.6 8.35 8.35 0 0 0 3-.54 14 14 0 0 0 2.62-1.4l.9-.6 1.9 3.42-1.27.7a18.54 18.54 0 0 1-2.75 1.36 11 11 0 0 1-4.53.77zm-6.8-21.6l-.25.27a10 10 0 0 0-2.1 3.5 15.07 15.07 0 0 0-.74 4.73 10.9 10.9 0 0 0 .9 4.68l.23.52c-.04-.17-.1-.33-.16-.5a13.9 13.9 0 0 1-.75-4.32v-.78h-.08l.1-1.07a11.57 11.57 0 0 1 1-4 12.2 12.2 0 0 1 1.88-3.04zm13.7 7.9h.1v-.8a13 13 0 0 0-1-5.36 14.2 14.2 0 0 1 .9 5.34v.8zm-14.5-1.8h12.5a8.65 8.65 0 0 0-1.57-5.08 5 5 0 0 0-4.12-1.83 5.7 5.7 0 0 0-2.4.5 5.93 5.93 0 0 0-2.04 1.55 10.27 10.27 0 0 0-1.64 2.54 9.07 9.07 0 0 0-.7 2.3zm18.5-9.2h2.3l4.1 14.9c.3 1.1.6 2.1.8 3.1s.5 2 .8 3h.2c.3-1 .5-2 .8-3s.6-2 .9-3.1l4.2-14.9h2.5l4.2 14.9c.3 1.1.6 2.1.9 3.1l.9 3h.2c.3-1 .5-2 .8-3a28.06 28.06 0 0 0 .8-3.1l4.1-14.9h2.2l-6.6 23h-2.8l-4-14.3c-.4-1.1-.6-2.2-.9-3.3a20.25 20.25 0 0 0-.9-3.3h-.2c-.3 1.1-.5 2.2-.8 3.3s-.6 2.2-1 3.3l-4 14.2h-2.5zm24.86 24h-4.3l-4.2-15a20.4 20.4 0 0 1-.64-2.24c-.1-.32-.18-.66-.28-1-.3 1.1-.6 2.2-1 3.35l-4.2 14.8h-4l-7.6-24.9h4.4l4.5 16.35c.2.72.4 1.42.55 2.13.3-1 .56-1.86.82-2.84l4.4-15.66h4l4.4 15.63c.3 1.1.6 2.08.9 3.06a27.12 27.12 0 0 0 .77-3l4.32-15.72h4.25zm4.4-23l-2.58 9.4 2.7-9.4h-.1zm-27.9 0l1.87 6.12-1.68-6.12h-.2zm13.48.1h1v-.1h-1zm19.57 17.8a17.68 17.68 0 0 0 3.2 2.1 8.76 8.76 0 0 0 4.2.8 5.64 5.64 0 0 0 4.1-1.4 4.48 4.48 0 0 0 1.4-3.2 4.14 4.14 0 0 0-.5-1.9 5.7 5.7 0 0 0-1.3-1.4 7.68 7.68 0 0 0-1.8-1 16.67 16.67 0 0 0-2-.8c-.9-.3-1.7-.7-2.6-1a13.57 13.57 0 0 1-2.4-1.3 5.8 5.8 0 0 1-1.7-1.8 4.87 4.87 0 0 1-.6-2.5 6.87 6.87 0 0 1 .5-2.4 5.58 5.58 0 0 1 1.4-2 5.76 5.76 0 0 1 2.3-1.3 10.23 10.23 0 0 1 3.2-.5 9.22 9.22 0 0 1 3.6.7 8.72 8.72 0 0 1 3 1.7l-1.2 1.5a15.76 15.76 0 0 0-2.4-1.5 7.45 7.45 0 0 0-3.1-.6 5.27 5.27 0 0 0-2.3.4 6.08 6.08 0 0 0-1.6.9 4.13 4.13 0 0 0-1 1.3 4 4 0 0 0-.3 1.5 3.1 3.1 0 0 0 .5 1.7 3.45 3.45 0 0 0 1.2 1.2 5.08 5.08 0 0 0 1.8.9c.7.3 1.3.5 2 .8.9.4 1.8.7 2.7 1.1a13.57 13.57 0 0 1 2.4 1.3 6.56 6.56 0 0 1 1.8 1.9 5.07 5.07 0 0 1 .7 2.8 7 7 0 0 1-.5 2.5 5.1 5.1 0 0 1-1.5 2.1 7.22 7.22 0 0 1-2.4 1.4 10.9 10.9 0 0 1-3.3.5 12.8 12.8 0 0 1-4.8-.9 16.45 16.45 0 0 1-3.7-2.2zm7.5 5.5a13.86 13.86 0 0 1-5.17-1 17.6 17.6 0 0 1-4-2.35l-.74-.56 2.16-3 .84.63a16.64 16.64 0 0 0 3 2 7.82 7.82 0 0 0 3.75.7 4.7 4.7 0 0 0 3.4-1.12 3.5 3.5 0 0 0 1.1-2.5 3.12 3.12 0 0 0-.37-1.44 4.9 4.9 0 0 0-1-1.05 6.6 6.6 0 0 0-1.57-.86l-.5-.23a10.63 10.63 0 0 0-1.38-.54c-.5-.17-1-.35-1.4-.54s-.82-.34-1.24-.5a14.64 14.64 0 0 1-2.67-1.42 6.77 6.77 0 0 1-2-2.12 5.9 5.9 0 0 1-.73-3 7.84 7.84 0 0 1 .56-2.75 6.54 6.54 0 0 1 1.62-2.35 6.72 6.72 0 0 1 2.7-1.54 11.26 11.26 0 0 1 3.5-.54 10.16 10.16 0 0 1 4 .78 9.53 9.53 0 0 1 3.28 1.87l.72.64-2.4 3-.78-.58a14.64 14.64 0 0 0-2.25-1.4 6.4 6.4 0 0 0-2.67-.5 4.4 4.4 0 0 0-1.85.28l-.14.05a4.9 4.9 0 0 0-1.26.7 3.22 3.22 0 0 0-.73.9 3 3 0 0 0-.23 1.14 2.1 2.1 0 0 0 .36 1.18 2.45 2.45 0 0 0 .86.87l.1.07a4.1 4.1 0 0 0 1.46.72h.12l1 .4c.34.1.67.24 1 .4s.9.36 1.33.53.92.37 1.4.57a14.67 14.67 0 0 1 2.57 1.4 7.57 7.57 0 0 1 2.07 2.18 6 6 0 0 1 .85 3.33 7.94 7.94 0 0 1-.6 2.98 6.13 6.13 0 0 1-1.8 2.5 8.2 8.2 0 0 1-2.67 1.5 11.93 11.93 0 0 1-3.63.6zm-6.23-20.46a5.27 5.27 0 0 0-.27 1.54 3.9 3.9 0 0 0 .47 2 4.83 4.83 0 0 0 1.4 1.48 12.84 12.84 0 0 0 2.23 1.2c.38.12.83.3 1.27.5s.8.32 1.24.47a12.34 12.34 0 0 1 1.6.6l.48.2a8.77 8.77 0 0 1 2 1.16 6.7 6.7 0 0 1 1.57 1.68 5.18 5.18 0 0 1 .64 2.42 5.37 5.37 0 0 1-1.3 3.58 4.1 4.1 0 0 0 1.2-1.7 5.94 5.94 0 0 0 .44-2.14 4.08 4.08 0 0 0-.53-2.26 5.57 5.57 0 0 0-1.53-1.62 12.8 12.8 0 0 0-2.22-1.2c-.42-.2-.86-.36-1.3-.53s-.92-.38-1.4-.6l-1-.37-1-.4a6.1 6.1 0 0 1-2-1 4.44 4.44 0 0 1-1.48-1.5 4.13 4.13 0 0 1-.64-2.2 4.87 4.87 0 0 1 .16-1.35z" class="cls-8"/></svg>