<?xml version="1.0" encoding="UTF-8" standalone="no"?>
<!DOCTYPE svg PUBLIC "-//W3C//DTD SVG 1.1//EN" "http://www.w3.org/Graphics/SVG/1.1/DTD/svg11.dtd">
<svg version="1.1" xmlns="http://www.w3.org/2000/svg" xmlns:xlink="http://www.w3.org/1999/xlink" preserveAspectRatio="xMidYMid meet" viewBox="198.9965226916667 264.1224027229194 303.99999999999994 275.87000000000006" width="220.69" height="200"><defs><path d="M244.73 351.49C253.23 352.07 261.6 353.93 269.55 357.01C281.62 361.83 292.66 371.83 302.31 384.24C304.18 368.08 307.65 352.14 312.65 336.66C313.53 333.85 314.56 331.08 315.76 328.39C302.61 317.42 285.54 312.31 268.52 314.25C265.07 317.7 249.21 331.49 244.73 351.49" id="azl3c4BgM"></path><path d="M307.83 465.96C305.76 455.62 304.03 445.96 303 437C301.97 436.31 301.28 435.96 300.24 435.27C199.9 373.56 261.97 321.15 268.52 314.25C268.52 314.25 255.07 314.25 235.76 323.91C230.34 326.78 225.25 330.25 220.59 334.25C219.93 334.73 219.35 335.32 218.87 335.97C190.25 363.9 194.38 411.14 229.9 451.14C257.14 481.82 296.45 508.72 323 524.58C318.52 510.44 312.65 488.72 307.83 465.96" id="b3HWYI4okt"></path><path d="M498.51 328.04C496.88 319.82 493.97 311.91 489.89 304.6C473.95 300.17 457.22 299.35 440.92 302.18C443.02 308.53 444.18 315.15 444.37 321.84C445.75 349.42 437.48 384.93 428.86 405.28C422.3 420.79 410.58 439.07 398.17 457C400.24 471.48 402.31 483.89 403.68 491.82C427.48 471.48 453.68 445.96 473.34 419.07C495.4 387.69 503.68 355.28 498.51 328.04" id="a1a4OyHnY5"></path><path d="M480.92 292.18C478.34 289.47 475.57 286.94 472.65 284.6C472.61 284.56 472.34 284.29 472.3 284.25C470.58 282.87 469.2 281.84 469.2 281.84C468.01 280.91 466.74 280.11 465.41 279.43C465.06 279.08 464.72 279.08 464.37 278.74C464.03 278.39 462.65 277.7 461.96 277.36C461.75 277.25 460.1 276.43 459.89 276.32C459.54 276.32 459.54 275.98 459.2 275.98C452.08 272.34 444.56 269.56 436.79 267.7C367.48 251.15 335.76 318.73 328.17 341.49C322.41 359.74 318.82 378.6 317.48 397.69C316.1 415.97 319.21 439.76 324.03 462.51C331.27 496.99 344.03 536.64 344.03 536.99C344.03 537.33 382.65 509.06 386.1 506.3C386.1 500.79 364.38 410.45 380.58 360.11C393.34 321.15 418.17 306.67 440.92 302.18C457.21 299.15 473.98 299.98 489.89 304.6C487.36 300.15 484.35 295.98 480.92 292.18" id="c1EEYSxq8q"></path></defs><g><g><use xlink:href="#azl3c4BgM" opacity="1" fill="#0c8799" fill-opacity="1"></use><g><use xlink:href="#azl3c4BgM" opacity="1" fill-opacity="0" stroke="#000000" stroke-width="1" stroke-opacity="0"></use></g></g><g><use xlink:href="#b3HWYI4okt" opacity="1" fill="#29abab" fill-opacity="1"></use><g><use xlink:href="#b3HWYI4okt" opacity="1" fill-opacity="0" stroke="#000000" stroke-width="1" stroke-opacity="0"></use></g></g><g><use xlink:href="#a1a4OyHnY5" opacity="1" fill="#82a73f" fill-opacity="1"></use><g><use xlink:href="#a1a4OyHnY5" opacity="1" fill-opacity="0" stroke="#000000" stroke-width="1" stroke-opacity="0"></use></g></g><g><use xlink:href="#c1EEYSxq8q" opacity="1" fill="#b5d151" fill-opacity="1"></use><g><use xlink:href="#c1EEYSxq8q" opacity="1" fill-opacity="0" stroke="#000000" stroke-width="1" stroke-opacity="0"></use></g></g></g></svg>